<svg width="127" height="127" viewBox="0 0 127 127" fill="none" xmlns="http://www.w3.org/2000/svg">
<rect x="55.7188" y="92.772" width="30.3711" height="76.5858" rx="5" transform="rotate(-135 55.7188 92.772)" stroke="white" stroke-opacity="0.4" stroke-width="6"/>
<rect x="100.43" y="48.064" width="30.3711" height="31.4276" rx="5" transform="rotate(-135 100.43 48.064)" stroke="white" stroke-opacity="0.4" stroke-width="6"/>
<path d="M27.9396 102.776C25.2274 103.233 22.8741 100.88 23.331 98.1677L26.0178 82.2198C26.5579 79.0148 30.4923 77.7575 32.7906 80.0557L46.0516 93.3167C48.3498 95.615 47.0925 99.5495 43.8875 100.089L27.9396 102.776Z" stroke="white" stroke-opacity="0.4" stroke-width="6"/>
<path d="M61.6656 98.1953C62.2047 97.746 62.8843 97.5 63.5861 97.5H107.5C109.157 97.5 110.5 98.8431 110.5 100.5V104.5C110.5 106.157 109.157 107.5 107.5 107.5H58.7861C55.9803 107.5 54.7101 103.992 56.8656 102.195L61.6656 98.1953Z" fill="white" fill-opacity="0.4"/>
</svg>
